HIERARCHY
ROOT root
{
	OFFSET	0	13.1	24.9
	CHANNELS 6  Xposition Yposition Zposition Xrotation Yrotation Zrotation
	JOINT spine_1
	{
		OFFSET	0	9.99999	0
		CHANNELS 3  Xrotation Yrotation Zrotation
		JOINT spine_2
		{
			OFFSET	0	112	-10
			CHANNELS 3  Xrotation Yrotation Zrotation
			JOINT spine_3
			{
				OFFSET	0	206.5	19.3
				CHANNELS 3  Xrotation Yrotation Zrotation
				JOINT spine_4
				{
					OFFSET	0	110.4	14.6
					CHANNELS 3  Xrotation Yrotation Zrotation
					JOINT neck_1
					{
						OFFSET	0	71.8	-50.3
						CHANNELS 3  Xrotation Yrotation Zrotation
						JOINT neck_2
						{
							OFFSET	0	86.2	-25.8
							CHANNELS 3  Xrotation Yrotation Zrotation
							JOINT head_ee
							{
								OFFSET	0	179.8	-8.7
								CHANNELS 3  Xrotation Yrotation Zrotation
								End Site
								{
									OFFSET	1	0	0
								}
							}
						}
					}
					JOINT left_clavicle
					{
						OFFSET	-43.2	22.4	-70.8
						CHANNELS 3  Xrotation Yrotation Zrotation
						JOINT left_shoulder
						{
							OFFSET	-93.9	-5.79999	48.7
							CHANNELS 3  Xrotation Yrotation Zrotation
							JOINT left_elbow
							{
								OFFSET	-291.4	-30.8	15.2
								CHANNELS 3  Xrotation Yrotation Zrotation
								JOINT left_lowarm_twist
								{
									OFFSET	-110.7	-3.89999	13.6
									CHANNELS 3  Xrotation Yrotation Zrotation
									JOINT left_hand
									{
										OFFSET	-110.7	-3.89999	13.6
										CHANNELS 3  Xrotation Yrotation Zrotation
										JOINT left_ee
										{
											OFFSET	-80.8	-5.10001	12.1
											CHANNELS 3  Xrotation Yrotation Zrotation
											End Site
											{
												OFFSET	1	0	0
											}
										}
									}
								}
							}
						}
					}
					JOINT right_clavicle
					{
						OFFSET	43.2	22.4	-70.8
						CHANNELS 3  Xrotation Yrotation Zrotation
						JOINT right_shoulder
						{
							OFFSET	93.9	-5.79999	48.7
							CHANNELS 3  Xrotation Yrotation Zrotation
							JOINT right_elbow
							{
								OFFSET	291.4	-30.8	15.2
								CHANNELS 3  Xrotation Yrotation Zrotation
								JOINT right_lowarm_twist
								{
									OFFSET	110.7	-3.89999	13.6
									CHANNELS 3  Xrotation Yrotation Zrotation
									JOINT right_hand
									{
										OFFSET	110.7	-3.89999	13.6
										CHANNELS 3  Xrotation Yrotation Zrotation
										JOINT right_ee
										{
											OFFSET	80.8	-5.10001	12.1
											CHANNELS 3  Xrotation Yrotation Zrotation
											End Site
											{
												OFFSET	1	0	0
											}
										}
									}
								}
							}
						}
					}
				}
			}
		}
	}
	JOINT left_hip
	{
		OFFSET	-82.8	-127.5	0.300001
		CHANNELS 3  Xrotation Yrotation Zrotation
		JOINT left_knee
		{
			OFFSET	-28.2	-396.7	2.2
			CHANNELS 3  Xrotation Yrotation Zrotation
			JOINT left_ankle
			{
				OFFSET	-11.7	-411.3	35.4
				CHANNELS 3  Xrotation Yrotation Zrotation
				JOINT left_toes
				{
					OFFSET	0	-60	-88.6
					CHANNELS 3  Xrotation Yrotation Zrotation
					JOINT left_foot_ee
					{
						OFFSET	-22.5	-16.5	-42.2
						CHANNELS 3  Xrotation Yrotation Zrotation
						End Site
						{
							OFFSET	1	0	0
						}
					}
				}
			}
		}
	}
	JOINT right_hip
	{
		OFFSET	82.8	-127.5	0.300001
		CHANNELS 3  Xrotation Yrotation Zrotation
		JOINT right_knee
		{
			OFFSET	28.2	-396.7	2.2
			CHANNELS 3  Xrotation Yrotation Zrotation
			JOINT right_ankle
			{
				OFFSET	11.7	-411.3	35.4
				CHANNELS 3  Xrotation Yrotation Zrotation
				JOINT right_toes
				{
					OFFSET	0	-60	-88.6
					CHANNELS 3  Xrotation Yrotation Zrotation
					JOINT right_foot_ee
					{
						OFFSET	22.5	-16.5	-42.2
						CHANNELS 3  Xrotation Yrotation Zrotation
						End Site
						{
							OFFSET	1	0	0
						}
					}
				}
			}
		}
	}
}
MOTION
Frames: 5
Frame Time: 0.02
2176.57 699.142 -710.463 -178.992 -77.9339 -167.193 1.89955 -1.03998 -6.85633 1.92547 -0.602654 -6.90827 1.99796 0.623891 -6.90639 1.93178 -0.471988 -6.91837 -3.65359 0.609783 13.9574 -3.01193 -9.70118 14.619 -0.0 0.0 -0.0 10.7144 6.60022 20.5959 -9.86298 -41.0333 70.4692 2.2553 -48.1621 1.00806 -23.576 -1.39679 2.6499 -1.85425 11.1155 -7.22478 -0.0 0.0 -0.0 -2.94223 -11.0811 3.70452 -19.5067 4.40379 -63.8825 1.114 28.8909 -0.286976 15.9421 -0.283685 2.01015 2.23543 8.34728 -11.6265 0.0 0.0 0.0 -19.5327 -4.31605 -10.3603 -12.7475 0.311541 1.92745 21.4519 6.89319 -2.90906 -37.4072 0.0 0.0 -0.0 0.0 -0.0 15.8995 -33.5121 -13.1172 -1.70188 -0.0663236 -0.252748 -7.28217 21.3013 -1.24795 7.26722 -0.0 -0.0 0.0 0.0 0.0 
2187.24 699.035 -709.103 -174.742 -79.2532 -162.817 1.80019 -1.16834 -7.04843 1.82751 -0.718628 -7.10808 1.91738 0.554339 -7.1227 1.84713 -0.574586 -7.1211 -7.19544 -1.37452 12.7321 -6.69663 -11.745 12.5168 -0.0 0.0 -0.0 10.4251 7.33114 19.954 -5.76319 -41.3624 74.7058 1.89507 -43.1864 0.75011 -21.8378 -1.25754 2.47611 -1.70769 13.4609 -5.17754 -0.0 0.0 -0.0 -3.04827 -9.52808 4.18072 -13.9687 0.30724 -63.9357 1.11374 28.8853 -0.286853 17.4586 -0.281327 2.20383 2.28127 6.27736 -12.8356 0.0 0.0 0.0 -17.9783 -7.58861 -10.9796 -15.9438 0.321885 2.41769 23.9716 9.63654 -3.21468 -35.7719 0.0 0.0 -0.0 0.0 -0.0 16.7975 -33.2236 -12.9646 -1.45883 -0.0573125 -0.216536 -8.96142 16.4628 -1.47371 11.4605 -0.0 -0.0 0.0 0.0 0.0 
2208.22 704.767 -700.805 -169.558 -79.6505 -157.676 1.7416 -1.16574 -7.18857 1.77003 -0.707187 -7.24775 1.86064 0.597858 -7.25753 1.78765 -0.552732 -7.26109 -5.42716 -1.94327 11.1556 -5.00264 -11.911 11.0485 -0.0 0.0 -0.0 10.6346 6.83689 20.4145 -8.67635 -42.9275 73.4735 1.84105 -42.3607 0.713422 -22.3407 -1.29729 2.52682 -1.18522 12.8518 -2.17201 -0.0 0.0 -0.0 -2.0674 -6.37823 2.98159 -13.2613 -1.17614 -62.905 0.886811 23.7156 -0.186202 17.6142 -0.280796 2.22369 2.67827 14.6052 -11.8491 0.0 0.0 0.0 -14.7417 -13.1586 -11.4956 -24.5577 0.213765 3.73377 16.258 10.8906 -2.26058 -33.8145 0.0 0.0 -0.0 0.0 -0.0 16.4681 -34.9164 -12.737 -2.96211 -0.110577 -0.441089 -7.92403 16.6553 -1.30294 13.1028 -0.0 -0.0 0.0 0.0 0.0 
2223.26 706.918 -693.402 -163.652 -81.0508 -152.52 1.88373 -1.42647 -7.05408 1.91085 -0.975887 -7.13001 2.03278 0.288502 -7.19039 1.96172 -0.847747 -7.1463 -5.64138 0.229314 10.5789 -5.29227 -7.45494 10.7971 -0.0 0.0 -0.0 10.7756 5.39168 20.8393 -7.87849 -41.9682 74.4578 1.45734 -35.8242 0.47107 -22.73 -1.32836 2.56584 -2.29817 22.834 -4.16614 -0.0 0.0 -0.0 -2.68171 -6.29977 4.11298 -10.017 2.52208 -64.0339 0.71269 19.4454 -0.122114 14.117 -0.279724 1.77709 3.05481 15.4097 -14.0527 0.0 0.0 0.0 -10.4119 -15.4938 -11.2505 -32.0829 -0.0413333 4.85965 9.41859 9.87438 -1.34221 -32.0787 0.0 0.0 -0.0 0.0 -0.0 18.9828 -34.188 -10.5464 -7.43383 -0.233933 -1.11609 -4.58785 13.9219 -0.733867 13.9742 -0.0 -0.0 0.0 0.0 0.0 
2254.94 719.613 -677.761 179.52 -77.1731 -168.993 1.36113 -1.10144 -7.03264 1.38838 -0.652857 -7.0881 1.47308 0.671251 -7.08639 1.40337 -0.453428 -7.10356 -8.2189 1.01556 9.49557 -7.95872 -4.8058 9.63648 -0.0 0.0 -0.0 10.4261 10.1163 19.644 -11.9928 -44.6096 73.5429 1.31705 -33.1199 0.391644 -21.4023 -1.22349 2.43191 -2.27109 25.4924 -2.66874 -0.0 0.0 -0.0 -2.13774 -3.89008 3.51523 -6.96911 1.3545 -64.4334 0.443697 12.3964 -0.0481869 13.7816 -0.278189 1.73427 3.34898 20.6185 -13.4712 0.0 0.0 0.0 7.41027 -22.9832 -4.55796 -63.6564 -2.60747 8.91555 16.8438 18.0963 -2.37326 -30.4297 0.0 0.0 -0.0 0.0 -0.0 11.3885 -37.8559 -13.6034 -6.24551 -0.206302 -0.935827 -6.61567 24.6437 -1.17372 14.3344 -0.0 -0.0 0.0 0.0 0.0 
